HIERARCHY
ROOT Hips
{
    OFFSET 0.000000 0.000000 0.000000
    CHANNELS 6 Xposition Yposition Zposition Zrotation Xrotation Yrotation
    JOINT Spine
    {
        OFFSET -0.000000 8.834163 0.000000
        CHANNELS 3 Zrotation Xrotation Yrotation
        JOINT Spine1
        {
            OFFSET -0.000000 17.855492 0.000000
            CHANNELS 3 Zrotation Xrotation Yrotation
            JOINT Neck
            {
                OFFSET -0.000000 17.782162 1.616560
                CHANNELS 3 Zrotation Xrotation Yrotation
                JOINT Head
                {
                    OFFSET -0.000000 15.082717 -2.154674
                    CHANNELS 3 Zrotation Xrotation Yrotation
                    End Site
                    {
                        OFFSET -0.000000 26.933422 0.000000
                    }
                }
            }
            JOINT LeftShoulder
            {
                OFFSET 4.280775 15.989452 -0.632416
                CHANNELS 3 Zrotation Xrotation Yrotation
                JOINT LeftArm
                {
                    OFFSET 11.735877 0.000000 0.000000
                    CHANNELS 3 Zrotation Xrotation Yrotation
                    JOINT LeftForeArm
                    {
                        OFFSET 33.149986 0.000000 0.000000
                        CHANNELS 3 Zrotation Xrotation Yrotation
                        JOINT LeftHand
                        {
                            OFFSET 28.572401 0.000000 0.000000
                            CHANNELS 3 Zrotation Xrotation Yrotation
                            End Site
                            {
                                OFFSET 16.160055 0.000000 0.000000
                            }
                        }
                    }
                }
            }
            JOINT RightShoulder
            {
                OFFSET -4.290631 15.989452 -0.632416
                CHANNELS 3 Zrotation Xrotation Yrotation
                JOINT RightArm
                {
                    OFFSET -11.735877 0.000000 0.000000
                    CHANNELS 3 Zrotation Xrotation Yrotation
                    JOINT RightForeArm
                    {
                        OFFSET -33.149986 0.000000 0.000000
                        CHANNELS 3 Zrotation Xrotation Yrotation
                        JOINT RightHand
                        {
                            OFFSET -28.572401 0.000000 0.000000
                            CHANNELS 3 Zrotation Xrotation Yrotation
                            End Site
                            {
                                OFFSET -16.160055 0.000000 0.000000
                            }
                        }
                    }
                }
            }
        }
    }
    JOINT LeftUpLeg
    {
        OFFSET 10.773369 0.000000 0.000000
        CHANNELS 3 Zrotation Xrotation Yrotation
        JOINT LeftLeg
        {
            OFFSET -0.000000 -54.062664 0.000000
            CHANNELS 3 Zrotation Xrotation Yrotation
            JOINT LeftFoot
            {
                OFFSET -0.000000 -48.941059 0.000000
                CHANNELS 3 Zrotation Xrotation Yrotation
                JOINT LeftToeBase
                {
                    OFFSET -0.000000 -7.002690 16.160055
                    CHANNELS 3 Zrotation Xrotation Yrotation
                    End Site
                    {
                        OFFSET -0.000000 0.000000 4.309348
                    }
                }
            }
        }
    }
    JOINT RightUpLeg
    {
        OFFSET -10.773369 0.000000 0.000000
        CHANNELS 3 Zrotation Xrotation Yrotation
        JOINT RightLeg
        {
            OFFSET -0.000000 -54.062664 0.000000
            CHANNELS 3 Zrotation Xrotation Yrotation
            JOINT RightFoot
            {
                OFFSET -0.000000 -48.941059 0.000000
                CHANNELS 3 Zrotation Xrotation Yrotation
                JOINT RightToeBase
                {
                    OFFSET -0.000000 -7.002690 16.160055
                    CHANNELS 3 Zrotation Xrotation Yrotation
                    End Site
                    {
                        OFFSET -0.000000 0.000000 4.309348
                    }
                }
            }
        }
    }
}
MOTION
Frames:    8
Frame Time:    0.008333
-68.447449    81.178894    6.298357    96.970200    1.741227    -85.933205    -0.367129    -32.248989    -1.513300    -5.936809    -1.622118    -1.491460    11.177253    54.330280    9.396060    -101.122093    -75.216225    -75.541786    23.513216    -14.540036    -9.478365    -5.910983    -19.404938    -57.557877    21.280499    -27.900558    -37.156990    23.070587    -21.160389    0.824361    -10.952695    -13.280011    26.331593    -8.165444    -19.489738    37.855267    -23.802198    -30.538584    40.781609    -18.721382    -22.024212    -3.119243    33.636063    -7.211285    43.245220    -73.480751    64.150879    70.460487    3.794953    -14.258657    12.732075    0.000000    0.000000    0.000000    -39.336723    -4.151803    -55.512539    48.358009    65.072769    -41.223488    6.982452    1.584092    -9.328793    0.000000    0.000000    0.000000    
-68.462120    81.153931    6.301521    96.944252    1.737253    -85.823021    -0.433176    -32.318447    -1.543899    -6.004530    -1.612334    -1.503159    11.737833    54.349758    9.101674    -100.672768    -74.960258    -74.954018    23.968893    -14.588971    -9.608888    -4.719894    -19.280846    -56.944038    22.221478    -26.217419    -34.689770    21.373489    -19.404249    1.901175    -11.090184    -13.475676    26.195877    -9.078114    -18.781080    37.794384    -25.314169    -28.945774    37.829357    -15.739687    -20.650166    -2.277555    33.382221    -7.171058    42.508114    -69.199333    63.343800    66.705521    3.531046    -13.722337    12.420028    0.000000    0.000000    0.000000    -39.115887    -3.952633    -55.379112    45.484596    64.033966    -38.757076    7.106134    2.386049    -9.639101    0.000000    0.000000    0.000000    
-68.483849    81.124542    6.291673    96.879791    1.755667    -85.722191    -0.373645    -32.364765    -1.535962    -6.284117    -1.595791    -1.515329    12.323082    54.456429    8.777443    -100.284492    -74.850525    -74.548706    24.516731    -14.633088    -9.729384    -3.500062    -19.042994    -56.441284    23.254179    -24.542791    -31.914875    18.989685    -17.916052    2.173936    -11.166517    -13.456191    26.073133    -10.048409    -18.308178    37.745060    -26.739838    -26.666731    35.136913    -13.704000    -18.434084    -2.377410    33.174423    -7.113103    41.939762    -65.174011    62.587406    63.067097    3.279174    -13.261606    12.347712    0.000000    0.000000    0.000000    -38.888626    -3.709326    -55.302773    42.844013    62.965958    -36.962513    7.741433    3.296549    -9.665327    0.000000    0.000000    0.000000    
-68.506027    81.094635    6.269765    96.785378    1.786268    -85.626099    -0.544836    -32.346355    -1.605896    -6.095555    -1.651056    -1.535992    12.955815    54.608959    8.512390    -100.725197    -74.344749    -74.586151    24.838591    -14.577828    -9.895390    -2.663252    -19.046568    -56.099350    23.897100    -22.699360    -29.266079    16.335390    -16.459663    2.007080    -11.699765    -13.446436    25.968174    -10.795000    -17.788851    37.582970    -27.979816    -24.148823    32.772388    -12.172503    -15.954964    -3.024516    32.969929    -6.995891    41.217350    -61.227833    61.499706    59.912373    2.868045    -12.817471    12.020602    0.000000    0.000000    0.000000    -38.589153    -3.455196    -55.194016    40.002060    61.744034    -35.396046    7.974428    4.329146    -9.134090    0.000000    0.000000    0.000000    
-68.531975    81.052353    6.244377    96.655922    1.831525    -85.548630    -0.479951    -32.344006    -1.588183    -6.304746    -1.637759    -1.539415    13.183313    54.692329    8.497434    -100.565132    -74.350868    -74.331810    25.377281    -14.443155    -9.918625    -1.539326    -18.909220    -55.710537    24.232862    -21.340454    -26.853252    13.906908    -15.489709    2.387469    -11.794824    -13.558917    25.824839    -11.537249    -17.195765    37.707317    -28.764210    -21.640936    30.629797    -10.943492    -13.626896    -3.736774    32.790298    -6.836603    40.613213    -57.447083    60.411083    56.415169    2.410683    -12.398145    12.171531    0.000000    0.000000    0.000000    -38.276035    -3.135476    -55.034191    37.572830    60.427719    -33.672569    8.198933    5.248955    -9.219397    0.000000    0.000000    0.000000    
-68.563171    81.007935    6.217652    96.511070    1.874044    -85.476662    -0.660749    -32.319691    -1.666837    -6.032824    -1.640486    -1.561972    12.895377    54.801651    8.514847    -100.832329    -74.504860    -74.810234    25.591198    -14.382751    -10.036330    -0.357562    -18.479227    -55.155342    24.622110    -20.129307    -24.683174    11.513189    -14.586958    3.303162    -12.463340    -13.163882    25.800192    -12.351337    -16.923027    37.385632    -29.393639    -19.442234    28.607904    -9.618350    -11.721481    -4.137041    32.562046    -6.655319    39.956673    -53.641220    59.154640    53.387047    1.972028    -11.873095    11.727981    0.000000    0.000000    0.000000    -37.949009    -2.799065    -54.940968    35.061108    59.005920    -32.164654    8.514658    6.332839    -9.038183    0.000000    0.000000    0.000000    
-68.593788    80.962135    6.189395    96.353081    1.920389    -85.407616    -0.658433    -32.313595    -1.668580    -6.053240    -1.590027    -1.562083    13.423817    54.868458    8.252457    -100.489113    -74.223351    -74.277641    25.917810    -14.182852    -10.062963    0.905384    -18.108631    -54.626827    24.878746    -18.990789    -22.652191    9.205359    -13.783396    4.511552    -12.804961    -13.169997    25.657883    -13.249717    -15.862093    37.186825    -30.096645    -17.292866    26.436768    -8.195716    -9.958214    -4.287929    32.338821    -6.455342    39.313038    -50.123272    57.748775    50.477821    1.724963    -11.276463    11.676291    0.000000    0.000000    0.000000    -37.577232    -2.428232    -54.600742    33.040871    57.314053    -31.215446    9.115593    7.477211    -8.984689    0.000000    0.000000    0.000000    
-68.620178    80.917717    6.163595    96.216095    1.943971    -85.337723    -0.614937    -32.339527    -1.656100    -6.226474    -1.530922    -1.561224    13.893460    54.974030    8.044668    -100.059021    -74.093193    -73.734993    26.346676    -13.861467    -10.019351    1.814049    -17.962969    -54.286045    24.918694    -17.824961    -20.776352    7.204618    -13.015308    5.498254    -12.989223    -13.125056    25.570051    -13.549111    -15.670788    37.365917    -30.236588    -14.673463    24.548939    -6.924742    -7.818373    -4.147385    32.082111    -6.265576    38.714943    -46.866821    56.220280    47.910015    1.897584    -10.404543    11.650766    0.000000    0.000000    0.000000    -37.271141    -2.088936    -54.776630    30.329189    55.813751    -30.175018    9.341580    8.978835    -7.981689    0.000000    0.000000    0.000000    
